# xmcd CD database file
#
# Track frame offsets:
#	150
#	34537
#	51260
#	67188
#	98088
#	139600
#	165611
#	183150
#	211913
#	231197
#	272712
#	299006
#	321235
#	341968
#
# Disc length: 4741 seconds
#
# Revision: 0
# Processed by: cddbd v1.5.2PL0 Copyright (c) Steve Scherf et al.
# Submitted via: Feurio! 1.68 - http://www.feurio.com
#
DISCID=d812830e
DTITLE=Alexis Korner and Friends - The Party Album plus
DYEAR=1900
DGENRE=Blues
TTITLE0=Thing Ain´t What They Used To Be
TTITLE1=Captain´s Tiger
TTITLE2=Skipping
TTITLE3=Spoonful
TTITLE4=A. Finkless Cafe, B. Dooji Hooji
TTITLE5=Whole Mess Of Blues
TTITLE6=Lining Track
TTITLE7=Robert Johnson
TTITLE8=Hey Pretty Mama
TTITLE9=Hi-Heel Sneekers
TTITLE10=Stormy Monday Blues
TTITLE11=Alexis Korner - Honky Tonk Woman
TTITLE12=Alexis Korner - Roberta
TTITLE13=Alexis Korner - East St. Louis Blues
EXTD=
EXTT0=
EXTT1=
EXTT2=
EXTT3=
EXTT4=
EXTT5=
EXTT6=
EXTT7=
EXTT8=
EXTT9=
EXTT10=
EXTT11=
EXTT12=
EXTT13=
PLAYORDER=
